<?xml version="1.0" encoding="utf-8"?>
<!-- Generator: Adobe Illustrator 23.0.2, SVG Export Plug-In . SVG Version: 6.00 Build 0)  -->
<svg version="1.1" id="Capa_1" xmlns="http://www.w3.org/2000/svg" xmlns:xlink="http://www.w3.org/1999/xlink" x="0px" y="0px"
	 viewBox="0 0 39.5 29.8" style="enable-background:new 0 0 39.5 29.8;" xml:space="preserve">
<style type="text/css">
	.st0{fill:#999999;}
</style>
<path class="st0" d="M38.6-0.1c0.6,0,1.1,0.5,1.1,1.1v27.7c0,0.6-0.5,1.1-1.1,1.1h-0.3H1.1H0.9c-0.6,0-1.1-0.5-1.1-1.1V1
	c0-0.6,0.5-1.1,1.1-1.1h0.3h0.3h0.6c12,0,24,0,36,0h0.3C38.3-0.1,38.6-0.1,38.6-0.1z M19.7,15.5l8.6-7.3l7-6h0h-0.6
	c-9.8,0-19.6,0-29.4,0H4.8H4.2h0l7,6L19.7,15.5z M29.8,9.9l-9.3,8c-0.4,0.4-1.1,0.4-1.5,0l-9.3-8L2,3.3v23.3l7.7-6.6l4.3-3.7
	c0.5-0.4,1.2-0.4,1.6,0.1c0.4,0.5,0.4,1.2-0.1,1.6l-4.3,3.7l-7,6h31.1l-7-6L24,17.9c-0.5-0.4-0.5-1.1-0.1-1.6
	c0.4-0.5,1.1-0.5,1.6-0.1l4.3,3.7l7.7,6.6V3.3L29.8,9.9z"/>
</svg>
